<svg width="334" height="55" viewBox="0 0 334 55" fill="none" xmlns="http://www.w3.org/2000/svg">
<path d="M12 42.32C11.28 42.32 10.4933 42.1467 9.64 41.8C8.81333 41.4267 8.02667 40.8 7.28 39.92C6.53333 39.04 5.92 37.8267 5.44 36.28C4.96 34.7333 4.72 32.7733 4.72 30.4C4.72 28.64 4.94667 26.8533 5.4 25.04C5.88 23.2 6.62667 21.4667 7.64 19.84C8.65333 18.2133 9.96 16.8 11.56 15.6C13.1867 14.4 15.1333 13.56 17.4 13.08C18.3333 12.8667 19.4 12.6667 20.6 12.48C21.8267 12.2667 23.0667 12.08 24.32 11.92C25.5733 11.7333 26.76 11.5867 27.88 11.48C29.0267 11.3733 29.9867 11.32 30.76 11.32C32.04 11.32 33 11.4933 33.64 11.84C34.28 12.1867 34.7067 12.5867 34.92 13.04C35.1333 13.4667 35.24 13.8533 35.24 14.2C35.24 14.6267 35.1067 15.0533 34.84 15.48C34.6 15.9067 33.9333 16.1867 32.84 16.32C32.6 16.3467 32.0933 16.4133 31.32 16.52C30.5467 16.6 29.6133 16.72 28.52 16.88C27.4533 17.04 26.32 17.2133 25.12 17.4C23.9467 17.56 22.8 17.7333 21.68 17.92C20.5867 18.08 19.64 18.2267 18.84 18.36C17.08 18.68 15.6533 19.2133 14.56 19.96C13.4667 20.68 12.6133 21.5333 12 22.52C11.4133 23.5067 10.9867 24.5467 10.72 25.64C11.7867 25.4 12.8933 25.16 14.04 24.92C15.1867 24.68 16.2667 24.4667 17.28 24.28C18.32 24.0933 19.2133 23.9467 19.96 23.84C20.7067 23.7333 21.2133 23.68 21.48 23.68C22.52 23.68 23.1467 23.8133 23.36 24.08C23.6 24.3467 23.72 24.76 23.72 25.32C23.72 25.8267 23.2667 26.4133 22.36 27.08C21.4533 27.72 20.0133 28.3733 18.04 29.04C16.0667 29.7067 13.48 30.2933 10.28 30.8C10.28 30.8267 10.28 30.84 10.28 30.84C10.2267 31.3733 10.1867 31.9867 10.16 32.68C10.1333 33.3467 10.12 34.0133 10.12 34.68C10.12 35.3467 10.16 35.8933 10.24 36.32C10.32 36.7467 10.4667 36.96 10.68 36.96C11.2667 36.96 12.08 36.84 13.12 36.6C14.16 36.36 15.2533 36.0667 16.4 35.72C17.5467 35.3733 18.6133 35.04 19.6 34.72C20.5867 34.3733 21.3067 34.1067 21.76 33.92C22.4267 33.6533 23.0933 33.3867 23.76 33.12C24.4533 32.8533 25 32.72 25.4 32.72C25.8 32.72 26.1467 32.88 26.44 33.2C26.7333 33.4933 26.8267 33.9467 26.72 34.56C26.6933 34.8267 26.4133 35.2667 25.88 35.88C25.3733 36.4667 24.6667 37.1333 23.76 37.88C22.88 38.6 21.8267 39.3067 20.6 40C19.4 40.6667 18.0667 41.2267 16.6 41.68C15.16 42.1067 13.6267 42.32 12 42.32ZM39.7813 41.96C39.0879 41.96 38.4746 41.6267 37.9413 40.96C37.4346 40.2933 37.0479 39.2667 36.7813 37.88C36.5679 36.7067 36.3813 35.3733 36.2213 33.88C36.0613 32.3867 35.9146 30.92 35.7812 29.48C35.6746 28.0133 35.5946 26.7333 35.5413 25.64C35.4879 24.5467 35.4613 23.8 35.4613 23.4C35.4613 21.96 35.7146 20.7733 36.2213 19.84C36.7279 18.88 37.7013 18.4 39.1413 18.4C39.7546 18.4 40.2213 18.6667 40.5413 19.2C40.8613 19.7067 41.0213 20.4133 41.0213 21.32C41.0213 21.88 41.0213 22.5867 41.0213 23.44C41.0479 24.2667 41.0746 25.2 41.1013 26.24C41.1279 27.3867 41.1546 28.6267 41.1813 29.96C41.2346 31.2667 41.2613 32.5733 41.2613 33.88C42.1946 32.4133 43.1946 30.8533 44.2613 29.2C45.3279 27.52 46.3679 25.8933 47.3813 24.32C48.4213 22.7467 49.3546 21.36 50.1813 20.16C51.0079 18.9333 51.6346 18.0667 52.0613 17.56C52.4346 17.1067 52.8879 16.72 53.4213 16.4C53.9546 16.0533 54.5146 15.88 55.1013 15.88C55.7413 15.88 56.2746 16.1333 56.7013 16.64C57.1279 17.1467 57.3413 17.7333 57.3413 18.4C57.3413 18.9067 57.2346 19.3867 57.0213 19.84C56.8346 20.2933 56.5946 20.72 56.3013 21.12C55.5013 22.24 54.5546 23.5467 53.4613 25.04C52.3946 26.5333 51.2746 28.1067 50.1013 29.76C48.9279 31.3867 47.7813 32.96 46.6613 34.48C45.5679 36 44.5946 37.3467 43.7413 38.52C43.0479 39.5067 42.4879 40.2533 42.0613 40.76C41.6346 41.24 41.2479 41.56 40.9013 41.72C40.5813 41.88 40.2079 41.96 39.7813 41.96ZM63.6978 43.36C62.0445 43.36 60.7111 42.7867 59.6978 41.64C58.6845 40.4667 58.1778 38.5867 58.1778 36C58.1778 34.3467 58.3645 32.6933 58.7378 31.04C59.1378 29.36 59.6845 27.7733 60.3778 26.28C61.0978 24.76 61.9245 23.4133 62.8578 22.24C63.8178 21.0667 64.8711 20.1467 66.0178 19.48C67.1645 18.7867 68.3511 18.44 69.5778 18.44C71.6578 18.44 73.2845 19 74.4578 20.12C75.6311 21.24 76.2178 22.6667 76.2178 24.4C76.2178 25.7333 75.8445 26.9467 75.0978 28.04C74.3778 29.1067 73.3911 30.0667 72.1378 30.92C70.8845 31.7733 69.4845 32.5467 67.9378 33.24C66.3911 33.9333 64.8045 34.56 63.1778 35.12C63.0445 36.08 62.9778 36.9333 62.9778 37.68C62.9778 38.1333 63.2311 38.36 63.7378 38.36C64.9378 38.36 66.2178 38.1733 67.5778 37.8C68.9645 37.4 70.3645 36.8933 71.7778 36.28C73.1911 35.64 74.5511 34.9867 75.8578 34.32C77.1645 33.6267 78.3511 32.9733 79.4178 32.36C80.5111 31.72 81.4045 31.2133 82.0978 30.84C82.8178 30.44 83.2845 30.24 83.4978 30.24C84.0845 30.24 84.5111 30.4133 84.7778 30.76C85.0445 31.1067 85.1778 31.48 85.1778 31.88C85.1778 32.0667 84.8178 32.48 84.0978 33.12C83.4045 33.76 82.4445 34.52 81.2178 35.4C80.0178 36.2533 78.6578 37.1467 77.1378 38.08C75.6445 38.9867 74.0845 39.8533 72.4578 40.68C70.8578 41.48 69.2978 42.12 67.7778 42.6C66.2845 43.1067 64.9245 43.36 63.6978 43.36ZM63.8578 31.56C64.9511 30.92 66.0311 30.2533 67.0978 29.56C68.1911 28.84 69.0978 28.04 69.8178 27.16C70.5378 26.2533 70.8978 25.2 70.8978 24C70.8978 23.6533 70.8045 23.4267 70.6178 23.32C70.4311 23.1867 70.1645 23.12 69.8178 23.12C68.8845 23.12 68.0311 23.5333 67.2578 24.36C66.5111 25.1867 65.8445 26.2533 65.2578 27.56C64.6978 28.84 64.2311 30.1733 63.8578 31.56ZM86.2475 42C85.6075 42 84.9675 41.7867 84.3275 41.36C83.7142 40.9067 83.2075 40.2667 82.8075 39.44C82.4075 38.5867 82.2075 37.56 82.2075 36.36C82.2075 34.76 82.4208 33.0533 82.8475 31.24C83.3008 29.4267 83.8475 27.6133 84.4875 25.8C85.1275 23.9867 85.7542 22.28 86.3675 20.68C86.6608 19.9067 87.0208 19.3867 87.4475 19.12C87.8742 18.8267 88.4342 18.68 89.1275 18.68C90.7008 18.68 91.4875 19.4667 91.4875 21.04C91.4875 21.3067 91.3675 21.8267 91.1275 22.6C90.8875 23.3467 90.5675 24.2667 90.1675 25.36C89.7942 26.4533 89.3942 27.64 88.9675 28.92C88.5675 30.1733 88.1942 31.4533 87.8475 32.76C87.5275 34.04 87.2742 35.2533 87.0875 36.4C87.7008 35.4667 88.3808 34.3067 89.1275 32.92C89.9008 31.5067 90.7142 30.0267 91.5675 28.48C92.4475 26.9333 93.3275 25.4933 94.2075 24.16C95.0875 22.8 95.9542 21.6933 96.8075 20.84C97.6608 19.9867 98.4742 19.56 99.2475 19.56C99.9142 19.56 100.541 19.6933 101.128 19.96C101.741 20.2 102.274 20.68 102.728 21.4C103.181 22.0933 103.528 23.0933 103.768 24.4C104.034 25.7067 104.168 27.4267 104.168 29.56C104.168 30.6267 104.261 31.6667 104.448 32.68C104.661 33.6667 105.008 34.4933 105.488 35.16C105.968 35.8 106.648 36.12 107.528 36.12C109.048 36.12 110.408 35.84 111.608 35.28C112.808 34.72 113.861 34.0667 114.768 33.32C115.674 32.5733 116.434 31.92 117.048 31.36C117.421 30.9867 117.741 30.6933 118.008 30.48C118.301 30.2667 118.541 30.16 118.728 30.16C119.288 30.16 119.688 30.3067 119.928 30.6C120.194 30.8933 120.328 31.2933 120.328 31.8C120.328 32.0667 120.101 32.56 119.648 33.28C119.194 34 118.554 34.8267 117.728 35.76C116.928 36.6667 116.008 37.5467 114.968 38.4C113.928 39.2533 112.808 39.96 111.608 40.52C110.408 41.08 109.181 41.36 107.928 41.36C105.821 41.36 104.074 40.9867 102.688 40.24C101.328 39.4667 100.314 38.1867 99.6475 36.4C98.9808 34.5867 98.6475 32.12 98.6475 29C98.6475 28.92 98.6475 28.7867 98.6475 28.6C98.6475 27.7733 98.6342 27.04 98.6075 26.4C98.6075 25.76 98.5675 25.24 98.4875 24.84C98.0342 25.6667 97.4875 26.6533 96.8475 27.8C96.2342 28.9467 95.5675 30.1733 94.8475 31.48C94.1275 32.76 93.3808 34.0267 92.6075 35.28C91.8342 36.5067 91.0608 37.6267 90.2875 38.64C89.5408 39.6533 88.8208 40.4667 88.1275 41.08C87.4342 41.6933 86.8075 42 86.2475 42ZM146.141 21.84C146.141 22.16 146.035 22.44 145.821 22.68C145.608 22.92 145.341 23.1067 145.021 23.24C144.568 23.4267 143.781 23.6667 142.661 23.96C141.541 24.2533 140.181 24.5867 138.581 24.96C137.008 25.3333 135.315 25.72 133.501 26.12C131.688 26.4933 129.875 26.8533 128.061 27.2C127.368 29.76 126.661 32.4 125.941 35.12C125.221 37.8133 124.501 40.4667 123.781 43.08C123.515 44.0133 123.195 44.72 122.821 45.2C122.448 45.7067 121.808 45.96 120.901 45.96C119.915 45.96 119.248 45.64 118.901 45C118.581 44.3867 118.541 43.5467 118.781 42.48C119.475 39.5733 120.115 36.8667 120.701 34.36C121.315 31.8533 121.808 29.8267 122.181 28.28C120.581 28.5467 119.181 28.76 117.981 28.92C116.781 29.0533 115.928 29.1067 115.421 29.08C114.861 29.0267 114.395 28.8 114.021 28.4C113.648 28 113.475 27.5067 113.501 26.92C113.555 26.3867 113.795 25.9333 114.221 25.56C114.648 25.16 115.155 24.92 115.741 24.84C116.568 24.76 117.635 24.64 118.941 24.48C120.248 24.32 121.688 24.1333 123.261 23.92C123.608 22.56 124.008 21.16 124.461 19.72C124.915 18.2533 125.381 16.8533 125.861 15.52C126.368 14.16 126.848 12.9733 127.301 11.96C127.755 10.9467 128.168 10.2133 128.541 9.76C128.835 9.41333 129.195 9.14666 129.621 8.96C130.075 8.77333 130.515 8.68 130.941 8.68C131.501 8.68 131.955 8.88 132.301 9.28C132.648 9.68 132.821 10.1467 132.821 10.68C132.821 10.8933 132.808 11.12 132.781 11.36C132.755 11.5733 132.701 11.7867 132.621 12C132.115 13.3333 131.568 14.9467 130.981 16.84C130.421 18.7333 129.835 20.8133 129.221 23.08C131.221 22.7867 133.181 22.4933 135.101 22.2C137.048 21.88 138.808 21.5867 140.381 21.32C141.981 21.0267 143.261 20.7733 144.221 20.56C144.755 20.3733 145.208 20.4133 145.581 20.68C145.955 20.92 146.141 21.3067 146.141 21.84Z" fill="white"/>
<path d="M160.169 34.84C160.995 34.84 161.582 35.0667 161.929 35.52C162.275 35.9467 162.449 36.4 162.449 36.88C162.449 37.5467 162.115 38.2533 161.449 39C160.782 39.7467 159.915 40.44 158.849 41.08C157.809 41.6933 156.689 42.2 155.489 42.6C154.289 43 153.142 43.2 152.049 43.2C150.422 43.2 148.862 42.76 147.369 41.88C145.902 40.9733 144.702 39.7067 143.769 38.08C142.862 36.4533 142.409 34.52 142.409 32.28C142.409 30.44 142.755 28.6133 143.449 26.8C144.169 24.9867 145.115 23.24 146.289 21.56C147.489 19.88 148.795 18.32 150.209 16.88C151.649 15.44 153.089 14.1867 154.529 13.12C155.995 12.0533 157.342 11.2267 158.569 10.64C159.795 10.0267 160.782 9.72 161.529 9.72C162.462 9.72 163.155 9.96 163.609 10.44C164.089 10.8933 164.329 11.5333 164.329 12.36C164.329 13.0267 164.195 13.5467 163.929 13.92C163.689 14.2667 163.302 14.5733 162.769 14.84C161.062 15.72 159.329 16.7867 157.569 18.04C155.835 19.2933 154.249 20.68 152.809 22.2C151.369 23.6933 150.209 25.2667 149.329 26.92C148.449 28.5733 148.009 30.2533 148.009 31.96C148.009 33.8267 148.382 35.24 149.129 36.2C149.875 37.16 150.889 37.64 152.169 37.64C152.809 37.64 153.502 37.5067 154.249 37.24C154.995 36.9467 155.729 36.6133 156.449 36.24C157.195 35.8667 157.889 35.5467 158.529 35.28C159.195 34.9867 159.742 34.84 160.169 34.84ZM197.597 44.04C196.557 44.04 195.797 43.76 195.317 43.2C194.837 42.6667 194.597 41.5867 194.597 39.96C194.597 38.5733 194.823 36.7733 195.277 34.56C195.73 32.3467 196.237 29.96 196.797 27.4C193.837 30.7067 190.423 32.8133 186.557 33.72C185.783 35.32 184.877 36.7867 183.837 38.12C182.797 39.4533 181.663 40.5333 180.437 41.36C179.237 42.16 177.983 42.56 176.677 42.56C175.05 42.56 173.65 42.0267 172.477 40.96C171.33 39.8933 170.757 38.2533 170.757 36.04C170.757 34.5467 170.983 33.28 171.437 32.24C171.89 31.1733 172.41 30.3733 172.997 29.84C172.517 28.8267 172.277 27.6667 172.277 26.36C172.277 24.6 172.757 23.04 173.717 21.68C174.677 20.32 175.943 19.2533 177.517 18.48C179.117 17.7067 180.85 17.32 182.717 17.32C183.757 17.32 184.743 17.5867 185.677 18.12C186.637 18.6267 187.41 19.4133 187.997 20.48C188.61 21.52 188.917 22.84 188.917 24.44C188.917 25.7733 188.717 27.24 188.317 28.84C190.21 27.72 192.077 26.1867 193.917 24.24C195.783 22.2933 197.45 20.1067 198.917 17.68C199.37 16.96 200.01 16.6 200.837 16.6C201.53 16.6 202.077 16.8133 202.477 17.24C202.903 17.64 203.117 18.1733 203.117 18.84C203.117 18.9733 203.037 19.4133 202.877 20.16C202.717 20.9067 202.503 21.88 202.237 23.08C201.97 24.2533 201.677 25.5467 201.357 26.96C201.063 28.3733 200.77 29.8133 200.477 31.28C200.183 32.7467 199.917 34.1333 199.677 35.44C200.37 34.1867 201.117 32.8533 201.917 31.44C202.743 30 203.597 28.5867 204.477 27.2C205.357 25.7867 206.223 24.5067 207.077 23.36C207.93 22.2133 208.717 21.3067 209.437 20.64C210.157 19.9467 210.77 19.6 211.277 19.6C212.29 19.6 213.143 19.8933 213.837 20.48C214.53 21.0667 214.877 21.6667 214.877 22.28C214.877 22.8933 214.81 23.84 214.677 25.12C214.543 26.4 214.37 27.84 214.157 29.44C213.97 31.0133 213.77 32.6 213.557 34.2C213.343 35.8 213.17 37.2533 213.037 38.56C212.903 39.84 212.837 40.8 212.837 41.44C212.837 41.9733 212.583 42.48 212.077 42.96C211.57 43.44 210.997 43.68 210.357 43.68C210.303 43.68 210.21 43.68 210.077 43.68C209.757 43.7067 209.463 43.6533 209.197 43.52C208.93 43.4133 208.703 43.0133 208.517 42.32C208.357 41.6267 208.277 40.4533 208.277 38.8C208.277 37.68 208.33 36.4533 208.437 35.12C208.543 33.7867 208.677 32.4533 208.837 31.12C209.023 29.76 209.223 28.4933 209.437 27.32C208.743 28.4667 207.97 29.7733 207.117 31.24C206.29 32.68 205.423 34.16 204.517 35.68C203.61 37.1733 202.717 38.56 201.837 39.84C200.983 41.0933 200.183 42.1067 199.437 42.88C198.717 43.6533 198.103 44.04 197.597 44.04ZM182.557 30.68C182.903 29.64 183.183 28.56 183.397 27.44C183.61 26.2933 183.717 25.1733 183.717 24.08C183.717 23.6267 183.623 23.1867 183.437 22.76C183.25 22.3333 182.93 22.12 182.477 22.12C181.57 22.12 180.677 22.3067 179.797 22.68C178.943 23.0533 178.237 23.5867 177.677 24.28C177.117 24.9733 176.837 25.8 176.837 26.76C176.837 27.6133 177.117 28.3333 177.677 28.92C178.263 29.5067 178.983 29.9467 179.837 30.24C180.717 30.5333 181.583 30.68 182.437 30.68C182.463 30.68 182.503 30.68 182.557 30.68ZM180.917 34.2C179.983 34.1733 179.077 34.0533 178.197 33.84C177.317 33.6 176.517 33.2667 175.797 32.84C175.717 33.2667 175.637 33.68 175.557 34.08C175.477 34.4533 175.437 34.8133 175.437 35.16C175.437 35.7467 175.53 36.28 175.717 36.76C175.93 37.2133 176.357 37.44 176.997 37.44C177.663 37.44 178.33 37.1467 178.997 36.56C179.69 35.9733 180.33 35.1867 180.917 34.2ZM225.037 42C224.397 42 223.757 41.7867 223.117 41.36C222.503 40.9067 221.997 40.2667 221.597 39.44C221.197 38.5867 220.997 37.56 220.997 36.36C220.997 34.76 221.21 33.0533 221.637 31.24C222.09 29.4267 222.637 27.6133 223.277 25.8C223.917 23.9867 224.543 22.28 225.157 20.68C225.45 19.9067 225.81 19.3867 226.237 19.12C226.663 18.8267 227.223 18.68 227.917 18.68C229.49 18.68 230.277 19.4667 230.277 21.04C230.277 21.3067 230.157 21.8267 229.917 22.6C229.677 23.3467 229.357 24.2667 228.957 25.36C228.583 26.4533 228.183 27.64 227.757 28.92C227.357 30.1733 226.983 31.4533 226.637 32.76C226.317 34.04 226.063 35.2533 225.877 36.4C226.49 35.4667 227.17 34.3067 227.917 32.92C228.69 31.5067 229.503 30.0267 230.357 28.48C231.237 26.9333 232.117 25.4933 232.997 24.16C233.877 22.8 234.743 21.6933 235.597 20.84C236.45 19.9867 237.263 19.56 238.037 19.56C238.703 19.56 239.33 19.6933 239.917 19.96C240.53 20.2 241.063 20.68 241.517 21.4C241.97 22.0933 242.317 23.0933 242.557 24.4C242.823 25.7067 242.957 27.4267 242.957 29.56C242.957 30.6267 243.05 31.6667 243.237 32.68C243.45 33.6667 243.797 34.4933 244.277 35.16C244.757 35.8 245.437 36.12 246.317 36.12C247.837 36.12 249.197 35.84 250.397 35.28C251.597 34.72 252.65 34.0667 253.557 33.32C254.463 32.5733 255.223 31.92 255.837 31.36C256.21 30.9867 256.53 30.6933 256.797 30.48C257.09 30.2667 257.33 30.16 257.517 30.16C258.077 30.16 258.477 30.3067 258.717 30.6C258.983 30.8933 259.117 31.2933 259.117 31.8C259.117 32.0667 258.89 32.56 258.437 33.28C257.983 34 257.343 34.8267 256.517 35.76C255.717 36.6667 254.797 37.5467 253.757 38.4C252.717 39.2533 251.597 39.96 250.397 40.52C249.197 41.08 247.97 41.36 246.717 41.36C244.61 41.36 242.863 40.9867 241.477 40.24C240.117 39.4667 239.103 38.1867 238.437 36.4C237.77 34.5867 237.437 32.12 237.437 29C237.437 28.92 237.437 28.7867 237.437 28.6C237.437 27.7733 237.423 27.04 237.397 26.4C237.397 25.76 237.357 25.24 237.277 24.84C236.823 25.6667 236.277 26.6533 235.637 27.8C235.023 28.9467 234.357 30.1733 233.637 31.48C232.917 32.76 232.17 34.0267 231.397 35.28C230.623 36.5067 229.85 37.6267 229.077 38.64C228.33 39.6533 227.61 40.4667 226.917 41.08C226.223 41.6933 225.597 42 225.037 42ZM261.198 43.36C259.544 43.36 258.211 42.7867 257.198 41.64C256.184 40.4667 255.678 38.5867 255.678 36C255.678 34.3467 255.864 32.6933 256.238 31.04C256.638 29.36 257.184 27.7733 257.878 26.28C258.598 24.76 259.424 23.4133 260.358 22.24C261.318 21.0667 262.371 20.1467 263.518 19.48C264.664 18.7867 265.851 18.44 267.078 18.44C269.158 18.44 270.784 19 271.958 20.12C273.131 21.24 273.718 22.6667 273.718 24.4C273.718 25.7333 273.344 26.9467 272.598 28.04C271.878 29.1067 270.891 30.0667 269.638 30.92C268.384 31.7733 266.984 32.5467 265.438 33.24C263.891 33.9333 262.304 34.56 260.678 35.12C260.544 36.08 260.478 36.9333 260.478 37.68C260.478 38.1333 260.731 38.36 261.238 38.36C262.438 38.36 263.718 38.1733 265.078 37.8C266.464 37.4 267.864 36.8933 269.278 36.28C270.691 35.64 272.051 34.9867 273.358 34.32C274.664 33.6267 275.851 32.9733 276.918 32.36C278.011 31.72 278.904 31.2133 279.598 30.84C280.318 30.44 280.784 30.24 280.998 30.24C281.584 30.24 282.011 30.4133 282.278 30.76C282.544 31.1067 282.678 31.48 282.678 31.88C282.678 32.0667 282.318 32.48 281.598 33.12C280.904 33.76 279.944 34.52 278.718 35.4C277.518 36.2533 276.158 37.1467 274.638 38.08C273.144 38.9867 271.584 39.8533 269.958 40.68C268.358 41.48 266.798 42.12 265.278 42.6C263.784 43.1067 262.424 43.36 261.198 43.36ZM261.358 31.56C262.451 30.92 263.531 30.2533 264.598 29.56C265.691 28.84 266.598 28.04 267.318 27.16C268.038 26.2533 268.398 25.2 268.398 24C268.398 23.6533 268.304 23.4267 268.118 23.32C267.931 23.1867 267.664 23.12 267.318 23.12C266.384 23.12 265.531 23.5333 264.758 24.36C264.011 25.1867 263.344 26.2533 262.758 27.56C262.198 28.84 261.731 30.1733 261.358 31.56ZM286.701 43.12C285.208 43.12 283.915 42.7733 282.821 42.08C281.728 41.4133 280.888 40.5467 280.301 39.48C279.715 38.3867 279.421 37.2667 279.421 36.12C279.421 34.2 279.715 32.4267 280.301 30.8C280.888 29.1467 281.661 27.6533 282.621 26.32C283.581 24.96 284.621 23.76 285.741 22.72C286.888 21.68 287.995 20.8133 289.061 20.12C290.155 19.4 291.128 18.8667 291.981 18.52C292.835 18.1467 293.461 17.96 293.861 17.96C294.581 17.96 295.088 18.12 295.381 18.44C295.701 18.7333 295.861 19.2267 295.861 19.92C295.861 20.32 295.568 20.8 294.981 21.36C294.421 21.92 293.675 22.56 292.741 23.28C291.835 24 290.875 24.8133 289.861 25.72C288.848 26.6267 287.875 27.64 286.941 28.76C286.035 29.88 285.288 31.1067 284.701 32.44C284.141 33.7733 283.861 35.2267 283.861 36.8C283.861 37.3867 283.968 37.84 284.181 38.16C284.421 38.48 284.808 38.64 285.341 38.64C286.861 38.64 288.488 38.3733 290.221 37.84C291.981 37.28 293.728 36.5867 295.461 35.76C297.221 34.9067 298.875 34.0267 300.421 33.12C301.995 32.2133 303.341 31.4 304.461 30.68C304.915 30.36 305.301 30.1067 305.621 29.92C305.941 29.7333 306.168 29.64 306.301 29.64C307.101 29.64 307.501 30.0533 307.501 30.88C307.501 31.3067 307.181 31.88 306.541 32.6C305.795 33.5333 304.781 34.4933 303.501 35.48C302.248 36.4667 300.848 37.4133 299.301 38.32C297.781 39.2267 296.221 40.04 294.621 40.76C293.048 41.48 291.568 42.0533 290.181 42.48C288.795 42.9067 287.635 43.12 286.701 43.12ZM333.407 21.84C333.407 22.16 333.3 22.44 333.087 22.68C332.874 22.92 332.607 23.1067 332.287 23.24C331.834 23.4267 331.047 23.6667 329.927 23.96C328.807 24.2533 327.447 24.5867 325.847 24.96C324.274 25.3333 322.58 25.72 320.767 26.12C318.954 26.4933 317.14 26.8533 315.327 27.2C314.634 29.76 313.927 32.4 313.207 35.12C312.487 37.8133 311.767 40.4667 311.047 43.08C310.78 44.0133 310.46 44.72 310.087 45.2C309.714 45.7067 309.074 45.96 308.167 45.96C307.18 45.96 306.514 45.64 306.167 45C305.847 44.3867 305.807 43.5467 306.047 42.48C306.74 39.5733 307.38 36.8667 307.967 34.36C308.58 31.8533 309.074 29.8267 309.447 28.28C307.847 28.5467 306.447 28.76 305.247 28.92C304.047 29.0533 303.194 29.1067 302.687 29.08C302.127 29.0267 301.66 28.8 301.287 28.4C300.914 28 300.74 27.5067 300.767 26.92C300.82 26.3867 301.06 25.9333 301.487 25.56C301.914 25.16 302.42 24.92 303.007 24.84C303.834 24.76 304.9 24.64 306.207 24.48C307.514 24.32 308.954 24.1333 310.527 23.92C310.874 22.56 311.274 21.16 311.727 19.72C312.18 18.2533 312.647 16.8533 313.127 15.52C313.634 14.16 314.114 12.9733 314.567 11.96C315.02 10.9467 315.434 10.2133 315.807 9.76C316.1 9.41333 316.46 9.14666 316.887 8.96C317.34 8.77333 317.78 8.68 318.207 8.68C318.767 8.68 319.22 8.88 319.567 9.28C319.914 9.68 320.087 10.1467 320.087 10.68C320.087 10.8933 320.074 11.12 320.047 11.36C320.02 11.5733 319.967 11.7867 319.887 12C319.38 13.3333 318.834 14.9467 318.247 16.84C317.687 18.7333 317.1 20.8133 316.487 23.08C318.487 22.7867 320.447 22.4933 322.367 22.2C324.314 21.88 326.074 21.5867 327.647 21.32C329.247 21.0267 330.527 20.7733 331.487 20.56C332.02 20.3733 332.474 20.4133 332.847 20.68C333.22 20.92 333.407 21.3067 333.407 21.84Z" fill="#7848F4"/>
</svg>
